<svg xmlns="http://www.w3.org/2000/svg" width="800" height="150" viewBox="0 0 800 150"><g stroke="#17324d" stroke-width="3" stroke-linejoin="round"><g transform="translate(0)"><rect x="18" y="55" width="124" height="78" rx="12" fill="#fff1c9"/><path d="M8 58L80 10l72 48z" fill="#58b96a"/><rect x="64" y="88" width="32" height="45" rx="5" fill="#8f684e"/><circle cx="40" cy="85" r="12" fill="#8bd477"/><circle cx="120" cy="85" r="12" fill="#8bd477"/></g><g transform="translate(160)"><rect x="18" y="55" width="124" height="78" rx="12" fill="#fff0cf"/><path d="M8 58L80 16l72 42z" fill="#f4a84f"/><rect x="64" y="88" width="32" height="45" rx="5" fill="#9d6546"/><path d="M30 73h100M40 91h80" stroke="#e7a35b" fill="none"/></g><g transform="translate(320)"><rect x="18" y="55" width="124" height="78" rx="12" fill="#f8f0d5"/><path d="M8 58L80 14l72 44z" fill="#5aa9e6"/><rect x="64" y="88" width="32" height="45" rx="5" fill="#7d5f4d"/><path d="M30 72h100" stroke="#d76f7d"/><circle cx="40" cy="91" r="10" fill="#f6d46b"/><circle cx="120" cy="91" r="10" fill="#f6d46b"/></g><g transform="translate(480)"><rect x="18" y="55" width="124" height="78" rx="12" fill="#f5dfbd"/><path d="M8 58L80 8l72 50z" fill="#b676d8"/><rect x="64" y="88" width="32" height="45" rx="5" fill="#81583e"/><path d="M28 72l20 14 20-14 20 14 20-14 20 14" fill="none" stroke="#ffca57"/></g><g transform="translate(640)"><rect x="18" y="55" width="124" height="78" rx="12" fill="#edf8f4"/><path d="M8 58L80 12l72 46z" fill="#65c9b8"/><rect x="64" y="88" width="32" height="45" rx="5" fill="#6d5b55"/><path d="M28 72h104" stroke="#9ce7dd"/><path d="M36 48l8-18M124 48l-8-18" stroke="#fff"/></g></g></svg>