<svg xmlns="http://www.w3.org/2000/svg" width="320" height="80" viewBox="0 0 320 80"><g stroke="#17324d" stroke-width="2" stroke-linejoin="round"><g transform="translate(0)"><ellipse cx="40" cy="69" rx="27" ry="6" fill="#17324d" opacity=".14" stroke="none"/><ellipse cx="40" cy="43" rx="25" ry="20" fill="#83cf76"/><circle cx="29" cy="29" r="12" fill="#a8e58e"/><circle cx="51" cy="29" r="12" fill="#a8e58e"/><path d="M20 25l-9-13 16 6M60 25l9-13-16 6" fill="#68a95f"/><circle cx="32" cy="39" r="3" fill="#ffea7c"/><circle cx="48" cy="39" r="3" fill="#ffea7c"/></g><g transform="translate(80)"><ellipse cx="40" cy="69" rx="27" ry="6" fill="#17324d" opacity=".14" stroke="none"/><ellipse cx="40" cy="42" rx="20" ry="24" fill="#9b83f4"/><path d="M20 37L2 20l23 5M60 37l18-17-23 5" fill="#c7b9ff"/><path d="M34 17l6-13 6 13" fill="#ffdf74"/><circle cx="33" cy="38" r="3" fill="#fff"/><circle cx="47" cy="38" r="3" fill="#fff"/></g><g transform="translate(160)"><ellipse cx="40" cy="69" rx="28" ry="6" fill="#17324d" opacity=".14" stroke="none"/><path d="M12 47q28-35 56 0-4 20-28 20T12 47z" fill="#67cddd"/><path d="M19 43L3 31l18 1M61 43l16-12-18 1" fill="#a7f1f4"/><path d="M35 23l5-14 5 14" fill="#fff"/><circle cx="33" cy="47" r="3" fill="#17324d"/><circle cx="47" cy="47" r="3" fill="#17324d"/></g><g transform="translate(240)"><ellipse cx="40" cy="69" rx="27" ry="6" fill="#17324d" opacity=".14" stroke="none"/><path d="M15 56q0-34 25-38 25 4 25 38-8 11-25 11T15 56z" fill="#f4a84f"/><path d="M23 26l-7-20 16 14M57 26l7-20-16 14" fill="#ffca57"/><path d="M35 16l5-13 5 13" fill="#fff1a8"/><circle cx="33" cy="43" r="3" fill="#17324d"/><circle cx="47" cy="43" r="3" fill="#17324d"/></g></g></svg>