<svg xmlns="http://www.w3.org/2000/svg" width="112" height="104" viewBox="0 0 112 104"><defs><radialGradient id="g"><stop stop-color="#c5b6ff"/><stop offset="1" stop-color="#6d56d8"/></radialGradient></defs><ellipse cx="56" cy="94" rx="38" ry="8" fill="#17324d" opacity=".18"/><path d="M25 51 12 23l29 15M87 51l13-28-29 15" fill="#8d72e8" stroke="#fff" stroke-width="5" stroke-linejoin="round"/><ellipse cx="56" cy="57" rx="38" ry="34" fill="url(#g)" stroke="#fff" stroke-width="6"/><path d="M28 64q-18 6-12 19 8 11 25-2M84 64q18 6 12 19-8 11-25-2" fill="#8d72e8" stroke="#fff" stroke-width="5" stroke-linecap="round"/><circle cx="43" cy="54" r="7" fill="#ffed7a"/><circle cx="69" cy="54" r="7" fill="#ffed7a"/><circle cx="43" cy="54" r="3" fill="#24193e"/><circle cx="69" cy="54" r="3" fill="#24193e"/><path d="M48 70q8 7 16 0" fill="none" stroke="#24193e" stroke-width="4" stroke-linecap="round"/><circle cx="56" cy="32" r="7" fill="#fff" opacity=".9"/><path d="m56 24 3 6 7 1-5 5 1 7-6-3-6 3 1-7-5-5 7-1z" fill="#ffca57"/></svg>