<svg xmlns="http://www.w3.org/2000/svg" width="92" height="110" viewBox="0 0 92 110"><ellipse cx="46" cy="102" rx="28" ry="7" fill="#17324d" opacity=".18"/><path d="M20 53q26-20 52 0l5 41H15z" fill="#73d8bd" stroke="#fff" stroke-width="5"/><circle cx="46" cy="35" r="21" fill="#eec29d" stroke="#fff" stroke-width="5"/><path d="M24 35q0-26 22-27 23 2 23 29-17-12-45-2" fill="#70472e"/><circle cx="38" cy="36" r="3" fill="#26364d"/><circle cx="54" cy="36" r="3" fill="#26364d"/><path d="M40 46q6 4 12 0" fill="none" stroke="#b86f62" stroke-width="3" stroke-linecap="round"/><path d="M22 68 7 81M70 68l15 13" stroke="#eec29d" stroke-width="8" stroke-linecap="round"/><path d="M34 92l-5 14M58 92l5 14" stroke="#553b2f" stroke-width="9" stroke-linecap="round"/><path d="M63 57h19v27H63z" fill="#fff8df" stroke="#8d72e8" stroke-width="4"/><path d="M67 64h11M67 70h11M67 76h8" stroke="#8d72e8" stroke-width="2"/></svg>