<svg xmlns="http://www.w3.org/2000/svg" width="256" height="64" viewBox="0 0 256 64"><defs><linearGradient id="j" x1="0" y1="0" x2="0" y2="1"><stop stop-color="#69b8ee"/><stop offset="1" stop-color="#2f6f9f"/></linearGradient></defs><g stroke="#17324d" stroke-width="2" stroke-linejoin="round"><g transform="translate(0)"><ellipse cx="32" cy="58" rx="20" ry="4" fill="#17324d" opacity=".15" stroke="none"/><circle cx="32" cy="18" r="11" fill="#f4c6a5"/><path d="M21 16q11-15 22 0v-6q-11-10-22 0z" fill="#3f3155"/><rect x="19" y="29" width="26" height="22" rx="9" fill="url(#j)"/><path d="M24 50l-5 10M40 50l7 9" fill="none" stroke-width="6"/><circle cx="28" cy="18" r="1.5"/><circle cx="36" cy="18" r="1.5"/></g><g transform="translate(64)"><ellipse cx="32" cy="58" rx="20" ry="4" fill="#17324d" opacity=".15" stroke="none"/><circle cx="32" cy="17" r="11" fill="#f4c6a5"/><path d="M21 15q11-15 22 0v-6q-11-10-22 0z" fill="#3f3155"/><rect x="19" y="28" width="26" height="22" rx="9" fill="url(#j)"/><path d="M24 49l-8 8M40 49l3 11" fill="none" stroke-width="6"/><circle cx="28" cy="17" r="1.5"/><circle cx="36" cy="17" r="1.5"/></g><g transform="translate(128)"><ellipse cx="32" cy="58" rx="20" ry="4" fill="#17324d" opacity=".15" stroke="none"/><circle cx="32" cy="18" r="11" fill="#f4c6a5"/><path d="M21 16q11-15 22 0v-6q-11-10-22 0z" fill="#3f3155"/><rect x="19" y="29" width="26" height="22" rx="9" fill="url(#j)"/><path d="M24 50l-3 10M40 50l8 7" fill="none" stroke-width="6"/><circle cx="28" cy="18" r="1.5"/><circle cx="36" cy="18" r="1.5"/></g><g transform="translate(192)"><ellipse cx="32" cy="58" rx="20" ry="4" fill="#17324d" opacity=".15" stroke="none"/><circle cx="32" cy="17" r="11" fill="#f4c6a5"/><path d="M21 15q11-15 22 0v-6q-11-10-22 0z" fill="#3f3155"/><rect x="19" y="28" width="26" height="22" rx="9" fill="url(#j)"/><path d="M24 49l-7 10M40 49l5 10" fill="none" stroke-width="6"/><circle cx="28" cy="17" r="1.5"/><circle cx="36" cy="17" r="1.5"/></g></g></svg>