<svg xmlns="http://www.w3.org/2000/svg" width="96" height="112" viewBox="0 0 96 112"><defs><linearGradient id="c" x1="0" y1="0" x2="1" y2="1"><stop stop-color="#66b8ff"/><stop offset="1" stop-color="#315ca8"/></linearGradient></defs><ellipse cx="48" cy="102" rx="30" ry="8" fill="#17324d" opacity=".18"/><path d="M25 49q23-23 46 0l8 43H17z" fill="url(#c)" stroke="#fff" stroke-width="5"/><circle cx="48" cy="35" r="22" fill="#f4c8a8" stroke="#fff" stroke-width="5"/><path d="M27 31q4-24 25-23 18 1 20 21-22-11-45 2" fill="#25334e"/><circle cx="40" cy="36" r="3" fill="#25334e"/><circle cx="57" cy="36" r="3" fill="#25334e"/><path d="M42 46q6 5 12 0" fill="none" stroke="#b86f62" stroke-width="3" stroke-linecap="round"/><path d="M22 67 6 79M74 67l16 12" stroke="#f4c8a8" stroke-width="9" stroke-linecap="round"/><path d="M34 91l-6 16M62 91l6 16" stroke="#25334e" stroke-width="10" stroke-linecap="round"/><circle cx="72" cy="62" r="8" fill="#ffca57" stroke="#fff" stroke-width="3"/></svg>