<svg xmlns="http://www.w3.org/2000/svg" width="260" height="210" viewBox="0 0 260 210"><defs><linearGradient id="w" x1="0" y1="0" x2="0" y2="1"><stop stop-color="#fff7d9"/><stop offset="1" stop-color="#f3d99b"/></linearGradient></defs><ellipse cx="130" cy="198" rx="105" ry="12" fill="#17324d" opacity=".15"/><path d="M28 89 130 18l102 71" fill="#ff9d8b" stroke="#fff" stroke-width="8" stroke-linejoin="round"/><rect x="38" y="84" width="184" height="110" rx="10" fill="url(#w)" stroke="#fff" stroke-width="8"/><rect x="105" y="128" width="50" height="66" rx="7" fill="#8f684e"/><circle cx="142" cy="162" r="4" fill="#ffca57"/><rect x="58" y="111" width="40" height="35" rx="5" fill="#8ee7ff" stroke="#fff" stroke-width="6"/><rect x="162" y="111" width="40" height="35" rx="5" fill="#8ee7ff" stroke="#fff" stroke-width="6"/><path d="M78 111v35M58 128h40M182 111v35M162 128h40" stroke="#5aa9e6" stroke-width="3"/><circle cx="130" cy="72" r="20" fill="#8d72e8" stroke="#fff" stroke-width="6"/><path d="m130 60 4 8 9 1-7 6 2 9-8-4-8 4 2-9-7-6 9-1z" fill="#ffca57"/></svg>